HIERARCHY
ROOT hip
{
	OFFSET 0.000000 0.000000 0.000000
	CHANNELS 6 Xposition Yposition Zposition Xrotation Zrotation Yrotation 
	JOINT abdomen
	{
		OFFSET 0.000000 3.422050 0.000000
		CHANNELS 3 Xrotation Zrotation Yrotation 
		JOINT chest
		{
			OFFSET 0.000000 8.486693 -0.684411
			CHANNELS 3 Xrotation Zrotation Yrotation 
			JOINT neck
			{
				OFFSET 0.000000 10.266162 -0.273764
				CHANNELS 3 Xrotation Zrotation Yrotation 
				JOINT head
				{
					OFFSET 0.000000 3.148285 0.000000
					CHANNELS 3 Xrotation Zrotation Yrotation 
					End Site
					{
						OFFSET 0.000000 3.148289 0.000000
					}
				}
			}
			JOINT lCollar
			{
				OFFSET 3.422053 6.707223 -0.821293
				CHANNELS 3 Yrotation Zrotation Xrotation 
				JOINT lShldr
				{
					OFFSET 3.285171 0.000000 0.000000
					CHANNELS 3 Zrotation Yrotation Xrotation 
					JOINT lForeArm
					{
						OFFSET 10.129278 0.000000 0.000000
						CHANNELS 3 Yrotation Zrotation Xrotation 
						JOINT lHand
						{
							OFFSET 8.486692 0.000000 0.000000
							CHANNELS 3 Zrotation Yrotation Xrotation 
							End Site
							{
								OFFSET 4.106464 0.000000 0.000000
							}
						}
					}
				}
			}
			JOINT rCollar
			{
				OFFSET -3.558935 6.707223 -0.821293
				CHANNELS 3 Yrotation Zrotation Xrotation 
				JOINT rShldr
				{
					OFFSET -3.148289 0.000000 0.000000
					CHANNELS 3 Zrotation Yrotation Xrotation 
					JOINT rForeArm
					{
						OFFSET -10.266159 0.000000 0.000000
						CHANNELS 3 Yrotation Zrotation Xrotation 
						JOINT rHand
						{
							OFFSET -8.349810 0.000000 0.000000
							CHANNELS 3 Zrotation Yrotation Xrotation 
							End Site
							{
								OFFSET -4.106464 0.000000 0.000000
							}
						}
					}
				}
			}
		}
	}
	JOINT lThigh
	{
		OFFSET 5.338403 -1.642589 1.368821
		CHANNELS 3 Xrotation Zrotation Yrotation 
		JOINT lShin
		{
			OFFSET -2.053232 -20.121670 0.000000
			CHANNELS 3 Xrotation Zrotation Yrotation 
			JOINT lFoot
			{
				OFFSET 0.000000 -19.300380 -1.231939
				CHANNELS 3 Xrotation Yrotation Zrotation 
				End Site
				{
					OFFSET 0.000000 -2.463878 4.653993
				}
			}
		}
	}
	JOINT rThigh
	{
		OFFSET -5.338403 -1.642589 1.368821
		CHANNELS 3 Xrotation Zrotation Yrotation 
		JOINT rShin
		{
			OFFSET 2.053232 -20.121670 0.000000
			CHANNELS 3 Xrotation Zrotation Yrotation 
			JOINT rFoot
			{
				OFFSET 0.000000 -19.300380 -1.231939
				CHANNELS 3 Xrotation Yrotation Zrotation 
				End Site
				{
					OFFSET 0.000000 -2.463878 4.653993
				}
			}
		}
	}
}
MOTION
Frames: 6
Frame Time: 0.033264
0.000000 43.528500 0.000000 0.000000 0.000000 0.000000 0.000000 0.000000 0.000000 0.000000 0.000000 0.000000 0.000000 0.000000 0.000000 0.000000 0.000000 0.000000 0.000000 0.000000 0.000000 0.000000 0.000000 0.000000 0.000000 0.000000 0.000000 0.000000 0.000000 0.000000 0.000000 0.000000 0.000000 0.000000 0.000000 0.000000 0.000000 0.000000 0.000000 0.000000 0.000000 0.000000 0.000000 0.000000 0.000000 0.000000 0.000000 0.000000 0.000000 0.000000 0.000000 0.000000 0.000000 0.000000 0.000000 0.000000 0.000000 0.000000 0.000000 0.000000 
7.296082 9.781487 12.378407 70.999847 -21.000031 -0.000472 51.188686 -1.417365 -0.793336 -34.590206 -5.255170 -0.256329 -24.006269 0.000000 0.000000 -22.342703 -0.055549 -0.001506 7.031729 -8.227683 0.817255 -23.666784 -25.777302 -47.555172 -128.453262 1.874019 54.141933 23.515579 -19.207664 9.843102 -4.484462 4.758425 0.202186 19.337530 37.438305 -53.484024 107.387466 -9.400845 52.794052 13.997348 -6.767776 -37.446461 -5.168948 14.281934 12.975604 32.133385 -5.923088 24.820293 43.029221 -12.011985 -0.193230 -112.703491 -64.296371 32.503788 105.365021 -0.985562 -1.647649 17.525291 -1.722353 -4.886950 
7.328122 9.766969 12.439733 70.999847 -21.000031 -0.000472 51.188686 -1.417365 -0.793336 -34.590206 -5.255170 -0.256329 -24.006269 0.000000 0.000000 -21.912079 -0.213793 -0.491837 6.982676 -8.669744 1.139545 -23.666784 -25.777302 -47.555172 -128.453262 1.874019 54.141933 23.688740 -19.674044 9.911750 -4.390562 5.056980 0.502872 19.337530 37.438305 -53.484024 107.387466 -9.400845 52.794052 13.821821 -6.544427 -37.169086 -4.805918 14.159950 13.026819 31.444357 -5.912030 24.909121 43.368572 -11.911719 -0.074722 -112.703491 -64.296371 32.503788 105.365021 -0.985562 -1.647649 17.525291 -1.722353 -4.886950 
7.360162 9.752451 12.501059 70.999847 -21.000031 -0.000472 51.188686 -1.417365 -0.793336 -34.590206 -5.255170 -0.256329 -24.006269 0.000000 0.000000 -21.478920 -0.368762 -0.984708 6.936031 -9.112553 1.462191 -23.666784 -25.777302 -47.555172 -128.453262 1.874018 54.141937 23.861984 -20.141052 9.979162 -4.298129 5.356227 0.803414 19.337530 37.438305 -53.484024 107.387466 -9.400847 52.794052 13.647371 -6.320121 -36.892384 -4.443014 14.037590 13.077228 30.754200 -5.899889 24.997959 43.707748 -11.810727 0.043186 -112.703491 -64.296379 32.503780 105.365021 -0.985562 -1.647649 17.525291 -1.722353 -4.886950 
7.392202 9.737933 12.562386 70.999847 -21.000031 -0.000472 51.188686 -1.417366 -0.793336 -34.590206 -5.255170 -0.256329 -24.006269 0.000000 0.000000 -21.043259 -0.520398 -1.480079 6.891814 -9.556076 1.785218 -23.666784 -25.777302 -47.555172 -128.453262 1.874019 54.141933 24.035307 -20.608652 10.045324 -4.207170 5.656149 1.103818 19.337530 37.438309 -53.484028 107.387466 -9.400845 52.794052 13.474003 -6.094872 -36.616348 -4.080243 13.914864 13.126836 30.062969 -5.886662 25.086781 44.046722 -11.709013 0.160486 -112.703514 -64.296379 32.503803 105.365021 -0.985562 -1.647649 17.525291 -1.722353 -4.886950 
7.424242 9.723415 12.623712 70.999855 -21.000031 -0.000473 51.188686 -1.417365 -0.793336 -34.590210 -5.255170 -0.256329 -24.006269 0.000000 0.000000 -20.605141 -0.668641 -1.977909 6.850037 -10.000279 2.108650 -23.666784 -25.777302 -47.555172 -128.453262 1.874019 54.141933 24.208748 -21.076843 10.110235 -4.117689 5.956728 1.404091 19.337528 37.438309 -53.484032 107.387466 -9.400845 52.794052 13.301719 -5.868689 -36.340992 -3.717610 13.791779 13.175636 29.370716 -5.872349 25.175573 44.385494 -11.606581 0.277172 -112.703514 -64.296379 32.503792 105.365021 -0.985563 -1.647649 17.525293 -1.722353 -4.886950 
